<svg width="287" height="50" viewBox="0 0 287 50" fill="none" xmlns="http://www.w3.org/2000/svg">
<g clip-path="url(#clip0_238_2)">
<path d="M59.4414 15.2852C59.4414 15.2852 59.6602 15.2773 60.0977 15.2617C60.5352 15.2383 61.1094 15.2109 61.8203 15.1797C62.5312 15.1484 63.3047 15.1211 64.1406 15.0977C64.9766 15.0664 65.8008 15.043 66.6133 15.0273C67.4258 15.0039 68.1406 14.9922 68.7578 14.9922C71.0781 14.9922 72.9102 15.1719 74.2539 15.5312C75.6055 15.8828 76.5703 16.3867 77.1484 17.043C77.7266 17.6914 78.0156 18.4648 78.0156 19.3633C78.0156 20.2227 77.7891 20.9453 77.3359 21.5312C76.8906 22.1094 76.207 22.6094 75.2852 23.0312C75.9336 23.25 76.5547 23.5625 77.1484 23.9688C77.7422 24.375 78.2305 24.9414 78.6133 25.668C78.9961 26.3867 79.1875 27.3398 79.1875 28.5273C79.1875 29.6211 78.9609 30.5234 78.5078 31.2344C78.0625 31.9453 77.4648 32.5078 76.7148 32.9219C75.9648 33.3281 75.1289 33.6289 74.207 33.8242C73.2852 34.0117 72.3477 34.1328 71.3945 34.1875C70.4414 34.2422 69.543 34.2695 68.6992 34.2695C68.4258 34.2695 67.9766 34.2617 67.3516 34.2461C66.7344 34.2305 66.0312 34.2109 65.2422 34.1875C64.4609 34.1641 63.6797 34.1367 62.8984 34.1055C62.1172 34.0742 61.4141 34.043 60.7891 34.0117C60.1719 33.9883 59.7227 33.9688 59.4414 33.9531V15.2852ZM66.7656 23.8516C67.4297 23.5938 68.0664 23.3203 68.6758 23.0312C69.293 22.7344 69.7969 22.3945 70.1875 22.0117C70.5781 21.6289 70.7734 21.1758 70.7734 20.6523C70.7734 20.3086 70.6406 20.0547 70.375 19.8906C70.1172 19.7266 69.8555 19.6445 69.5898 19.6445C69.3242 19.6445 69.0312 19.7031 68.7109 19.8203C68.3906 19.9297 68.0859 20.0586 67.7969 20.207C67.5078 20.3555 67.2656 20.4883 67.0703 20.6055C66.8828 20.7227 66.7812 20.7891 66.7656 20.8047V23.8516ZM71.3945 26.7227C71.3945 26.3633 71.2812 26.1094 71.0547 25.9609C70.8359 25.8125 70.5625 25.7383 70.2344 25.7383C69.8828 25.7383 69.4883 25.8281 69.0508 26.0078C68.6133 26.1875 68.1914 26.3906 67.7852 26.6172C67.3789 26.8438 67.0391 27.0234 66.7656 27.1562V30.1094L67.375 29.875C68.1875 29.5703 68.8945 29.2852 69.4961 29.0195C70.0977 28.7461 70.5625 28.4336 70.8906 28.082C71.2266 27.7227 71.3945 27.2695 71.3945 26.7227ZM88.5039 26.2188C88.5039 27.2188 88.5898 28 88.7617 28.5625C88.9414 29.1172 89.1719 29.5078 89.4531 29.7344C89.7422 29.9531 90.0469 30.0625 90.3672 30.0625C90.8359 30.0625 91.1406 29.9219 91.2812 29.6406C91.4297 29.3516 91.5039 28.9805 91.5039 28.5273V19.4336H98.4648V34H94.6211L92.9453 31.7148C92.2969 32.6055 91.418 33.3008 90.3086 33.8008C89.207 34.3008 88.0664 34.5508 86.8867 34.5508C85.9102 34.5508 85.0117 34.3477 84.1914 33.9414C83.3711 33.5273 82.7148 32.9336 82.2227 32.1602C81.7383 31.3867 81.4961 30.457 81.4961 29.3711V19.4336H88.5039V26.2188ZM113.418 33.0391C112.996 34.0938 112.508 35.0312 111.953 35.8516C111.398 36.6797 110.727 37.3281 109.938 37.7969C109.148 38.2734 108.188 38.5117 107.055 38.5117C106.125 38.5117 105.219 38.4531 104.336 38.3359C103.453 38.2266 102.746 38.0625 102.215 37.8438V33.6836C102.559 33.7695 103.035 33.8477 103.645 33.918C104.254 33.9883 104.816 34.0234 105.332 34.0234C105.848 34.0234 106.258 33.8633 106.562 33.543C106.875 33.2148 107.031 32.8242 107.031 32.3711C107.031 32.2617 107.02 32.1523 106.996 32.043C106.98 31.9336 106.953 31.8164 106.914 31.6914L100.891 19.4336H107.875L110.395 25.0703L112.75 19.4336H118.891L113.418 33.0391ZM133.949 34H126.66V15.2852H133.949V34ZM146.746 26.9688C146.746 25.6953 146.559 24.7812 146.184 24.2266C145.816 23.6719 145.316 23.3945 144.684 23.3945C144.332 23.3945 144.086 23.543 143.945 23.8398C143.812 24.1367 143.746 24.4922 143.746 24.9062V34H136.785V19.4336H140.629L142.305 21.707C142.953 20.8242 143.828 20.1328 144.93 19.6328C146.031 19.1328 147.172 18.8828 148.352 18.8828C149.336 18.8828 150.238 19.0898 151.059 19.5039C151.879 19.9102 152.531 20.5 153.016 21.2734C153.508 22.0469 153.754 22.9766 153.754 24.0625V34H146.746V26.9688ZM161.465 34L170.77 16.2344C170.996 15.8047 171.348 15.4727 171.824 15.2383C172.301 14.9961 172.797 14.875 173.312 14.875C173.773 14.875 174.223 14.9805 174.66 15.1914C175.105 15.4023 175.449 15.7266 175.691 16.1641L185.676 34H176.172L175.434 32.1484H170.371L169.738 34H161.465ZM170.945 28.4336H174.73L172.938 23.3711L170.945 28.4336ZM193.457 15.2852C193.457 15.2852 193.676 15.2773 194.113 15.2617C194.551 15.2383 195.125 15.2109 195.836 15.1797C196.547 15.1484 197.32 15.1211 198.156 15.0977C198.992 15.0664 199.816 15.043 200.629 15.0273C201.441 15.0039 202.156 14.9922 202.773 14.9922C205.094 14.9922 206.926 15.1719 208.27 15.5312C209.621 15.8828 210.586 16.3867 211.164 17.043C211.742 17.6914 212.031 18.4648 212.031 19.3633C212.031 20.2227 211.805 20.9453 211.352 21.5312C210.906 22.1094 210.223 22.6094 209.301 23.0312C209.949 23.25 210.57 23.5625 211.164 23.9688C211.758 24.375 212.246 24.9414 212.629 25.668C213.012 26.3867 213.203 27.3398 213.203 28.5273C213.203 29.6211 212.977 30.5234 212.523 31.2344C212.078 31.9453 211.48 32.5078 210.73 32.9219C209.98 33.3281 209.145 33.6289 208.223 33.8242C207.301 34.0117 206.363 34.1328 205.41 34.1875C204.457 34.2422 203.559 34.2695 202.715 34.2695C202.441 34.2695 201.992 34.2617 201.367 34.2461C200.75 34.2305 200.047 34.2109 199.258 34.1875C198.477 34.1641 197.695 34.1367 196.914 34.1055C196.133 34.0742 195.43 34.043 194.805 34.0117C194.188 33.9883 193.738 33.9688 193.457 33.9531V15.2852ZM200.781 23.8516C201.445 23.5938 202.082 23.3203 202.691 23.0312C203.309 22.7344 203.812 22.3945 204.203 22.0117C204.594 21.6289 204.789 21.1758 204.789 20.6523C204.789 20.3086 204.656 20.0547 204.391 19.8906C204.133 19.7266 203.871 19.6445 203.605 19.6445C203.34 19.6445 203.047 19.7031 202.727 19.8203C202.406 19.9297 202.102 20.0586 201.812 20.207C201.523 20.3555 201.281 20.4883 201.086 20.6055C200.898 20.7227 200.797 20.7891 200.781 20.8047V23.8516ZM205.41 26.7227C205.41 26.3633 205.297 26.1094 205.07 25.9609C204.852 25.8125 204.578 25.7383 204.25 25.7383C203.898 25.7383 203.504 25.8281 203.066 26.0078C202.629 26.1875 202.207 26.3906 201.801 26.6172C201.395 26.8438 201.055 27.0234 200.781 27.1562V30.1094L201.391 29.875C202.203 29.5703 202.91 29.2852 203.512 29.0195C204.113 28.7461 204.578 28.4336 204.906 28.082C205.242 27.7227 205.41 27.2695 205.41 26.7227ZM222.273 34H215.629V14.2773H222.273V34ZM228.859 12.6836C229.969 12.6836 230.785 12.9336 231.309 13.4336C231.84 13.9336 232.105 14.5078 232.105 15.1562C232.105 15.6406 231.953 16.1211 231.648 16.5977C231.352 17.0664 230.914 17.457 230.336 17.7695C229.758 18.0742 229.051 18.2266 228.215 18.2266C227.012 18.2266 226.164 17.9844 225.672 17.5C225.188 17.0078 224.945 16.4531 224.945 15.8359C224.945 15.3359 225.09 14.8477 225.379 14.3711C225.668 13.8867 226.102 13.4844 226.68 13.1641C227.266 12.8438 227.992 12.6836 228.859 12.6836ZM231.906 34H225.121V19.4336H231.906V34ZM244.715 26.9688C244.715 25.6953 244.527 24.7812 244.152 24.2266C243.785 23.6719 243.285 23.3945 242.652 23.3945C242.301 23.3945 242.055 23.543 241.914 23.8398C241.781 24.1367 241.715 24.4922 241.715 24.9062V34H234.754V19.4336H238.598L240.273 21.707C240.922 20.8242 241.797 20.1328 242.898 19.6328C244 19.1328 245.141 18.8828 246.32 18.8828C247.305 18.8828 248.207 19.0898 249.027 19.5039C249.848 19.9102 250.5 20.5 250.984 21.2734C251.477 22.0469 251.723 22.9766 251.723 24.0625V34H244.715V26.9688ZM260.559 14.2773V23.7812L263.324 19.4336H270.227L265.738 25.7969L270.953 34H263.805L260.875 29.2773C260.844 29.332 260.805 29.3984 260.758 29.4766C260.719 29.5469 260.691 29.6133 260.676 29.6758V34H254.488V14.2773H260.559ZM281.945 27.543C282.656 27.543 283.25 27.6953 283.727 28C284.203 28.3047 284.559 28.6992 284.793 29.1836C285.035 29.668 285.156 30.1836 285.156 30.7305C285.156 31.332 285.012 31.918 284.723 32.4883C284.434 33.0508 284 33.5156 283.422 33.8828C282.844 34.25 282.117 34.4336 281.242 34.4336C280.5 34.4336 279.891 34.2852 279.414 33.9883C278.945 33.6914 278.598 33.3008 278.371 32.8164C278.145 32.332 278.031 31.8164 278.031 31.2695C278.031 30.6836 278.188 30.1055 278.5 29.5352C278.812 28.9648 279.262 28.4922 279.848 28.1172C280.434 27.7344 281.133 27.543 281.945 27.543Z" fill="#E0E8F5"/>
<rect width="50" height="50" rx="10" fill="#2D47EB"/>
<path opacity="0.2" fill-rule="evenodd" clip-rule="evenodd" d="M17.176 15.0312H15.7749C15.5014 15.0312 15.2391 14.9226 15.0457 14.7292C14.8523 14.5358 14.7437 14.2735 14.7437 14C14.7437 13.7265 14.8523 13.4642 15.0457 13.2708C15.2391 13.0774 15.5014 12.9688 15.7749 12.9688H17.979C18.2085 12.9688 18.4314 13.0453 18.6124 13.1863C18.7935 13.3272 18.9224 13.5246 18.9787 13.747L21.0439 21.9104C21.4534 21.6822 21.9144 21.5624 22.3832 21.5625H33.368C33.7841 21.5635 34.1946 21.6583 34.5689 21.8398C34.9433 22.0214 35.2719 22.2851 35.5302 22.6112C35.7885 22.9373 35.97 23.3175 36.0611 23.7235C36.1521 24.1295 36.1504 24.5508 36.0562 24.956L34.9795 29.7149C34.8426 30.3268 34.5016 30.8739 34.0126 31.2665C33.5236 31.659 32.9157 31.8736 32.2886 31.875H23.4612C22.8345 31.8734 22.2271 31.6588 21.7384 31.2666C21.2497 30.8743 20.9088 30.3277 20.7717 29.7163L19.6937 24.9546C19.6788 24.8886 19.6664 24.8221 19.6565 24.7552C19.6289 24.6929 19.6059 24.6285 19.5878 24.5628L17.176 15.0312ZM22.7187 36.6875C23.3568 36.6875 23.9689 36.434 24.4201 35.9827C24.8714 35.5315 25.1249 34.9194 25.1249 34.2812C25.1249 33.6431 24.8714 33.031 24.4201 32.5798C23.9689 32.1285 23.3568 31.875 22.7187 31.875C22.0805 31.875 21.4684 32.1285 21.0172 32.5798C20.5659 33.031 20.3124 33.6431 20.3124 34.2812C20.3124 34.9194 20.5659 35.5315 21.0172 35.9827C21.4684 36.434 22.0805 36.6875 22.7187 36.6875ZM32.3437 36.6875C32.9818 36.6875 33.5939 36.434 34.0451 35.9827C34.4964 35.5315 34.7499 34.9194 34.7499 34.2812C34.7499 33.6431 34.4964 33.031 34.0451 32.5798C33.5939 32.1285 32.9818 31.875 32.3437 31.875C31.7055 31.875 31.0934 32.1285 30.6422 32.5798C30.1909 33.031 29.9374 33.6431 29.9374 34.2812C29.9374 34.9194 30.1909 35.5315 30.6422 35.9827C31.0934 36.434 31.7055 36.6875 32.3437 36.6875Z" fill="white"/>
<path d="M15.104 14.6875H13.4375C13.2552 14.6875 13.0803 14.6151 12.9514 14.4861C12.8224 14.3572 12.75 14.1823 12.75 14C12.75 13.8177 12.8224 13.6428 12.9514 13.5139C13.0803 13.3849 13.2552 13.3125 13.4375 13.3125H15.6416C15.795 13.3125 15.9439 13.3639 16.0648 13.4583C16.1856 13.5527 16.2714 13.6848 16.3085 13.8336L18.9169 24.2836C18.9563 24.4588 18.9256 24.6425 18.8314 24.7954C18.7371 24.9482 18.5868 25.0581 18.4126 25.1016C18.2383 25.1451 18.054 25.1187 17.899 25.028C17.744 24.9373 17.6306 24.7896 17.5831 24.6164L15.104 14.6875Z" fill="white"/>
<path fill-rule="evenodd" clip-rule="evenodd" d="M31.3057 21.5625H20.3194C20.1123 21.5625 19.9074 21.5854 19.7048 21.6313C18.9896 21.7988 18.3699 22.2428 17.9813 22.8662C17.5927 23.4895 17.4668 24.2415 17.6313 24.9574L18.7079 29.7163C18.8452 30.3279 19.1862 30.8747 19.6752 31.267C20.1642 31.6593 20.7719 31.8737 21.3988 31.875H30.2291C30.8557 31.8734 31.4631 31.6588 31.9518 31.2666C32.4405 30.8743 32.7814 30.3277 32.9186 29.7163L33.9952 24.956C34.041 24.7534 34.0639 24.5476 34.0639 24.3386C34.0656 23.9752 33.9955 23.6151 33.8578 23.2788C33.72 22.9425 33.5173 22.6366 33.2613 22.3788C33.0052 22.1209 32.7008 21.9161 32.3654 21.776C32.0301 21.636 31.6705 21.5634 31.3071 21.5625M20.0142 22.9719C20.1148 22.9489 20.2176 22.9374 20.3208 22.9375H31.3057C31.5153 22.9387 31.722 22.9871 31.9103 23.0793C32.0985 23.1714 32.2636 23.3049 32.3931 23.4697C32.5227 23.6345 32.6133 23.8264 32.6583 24.0312C32.7034 24.2359 32.7016 24.4482 32.6532 24.6521L31.5752 29.4124C31.507 29.7195 31.3365 29.9943 31.0917 30.1919C30.8469 30.3895 30.5423 30.4981 30.2277 30.5H21.3988C20.7553 30.5 20.1957 30.049 20.0513 29.4124L18.9747 24.6521C18.8912 24.2914 18.9538 23.9123 19.1488 23.5975C19.3438 23.2827 19.654 23.0578 20.0142 22.9719Z" fill="white"/>
<path d="M33.375 34.2811C33.375 34.9193 33.1215 35.5313 32.6702 35.9826C32.219 36.4339 31.6069 36.6874 30.9688 36.6874C30.3306 36.6874 29.7185 36.4339 29.2673 35.9826C28.816 35.5313 28.5625 34.9193 28.5625 34.2811C28.5625 33.643 28.816 33.0309 29.2673 32.5797C29.7185 32.1284 30.3306 31.8749 30.9688 31.8749C31.6069 31.8749 32.219 32.1284 32.6702 32.5797C33.1215 33.0309 33.375 33.643 33.375 34.2811ZM23.75 34.2811C23.75 34.5971 23.6878 34.91 23.5668 35.202C23.4459 35.4939 23.2687 35.7592 23.0452 35.9826C22.8218 36.206 22.5565 36.3833 22.2646 36.5042C21.9726 36.6251 21.6597 36.6874 21.3438 36.6874C21.0278 36.6874 20.7149 36.6251 20.4229 36.5042C20.131 36.3833 19.8657 36.206 19.6423 35.9826C19.4188 35.7592 19.2416 35.4939 19.1207 35.202C18.9997 34.91 18.9375 34.5971 18.9375 34.2811C18.9375 33.643 19.191 33.0309 19.6423 32.5797C20.0935 32.1284 20.7056 31.8749 21.3438 31.8749C21.9819 31.8749 22.594 32.1284 23.0452 32.5797C23.4965 33.0309 23.75 33.643 23.75 34.2811Z" fill="white"/>
</g>
<defs>
<clipPath id="clip0_238_2">
<rect width="287" height="50" fill="white"/>
</clipPath>
</defs>
</svg>
